<svg xmlns="http://www.w3.org/2000/svg" xml:space="preserve" width="2000" height="559" data-id="lg_mQRepy0dSt6xPiYrxi" data-version="1" viewBox="0 0 2000 559"><g data-padding="20"><g transform="translate(10.796 10.217)scale(.96345)"><path fill="#fff" d="M1026.735-.225a279.725 279.725 0 1 0 0 559.45 279.725 279.725 0 1 0 0-559.45"/><rect width="442.323" height="466.69" x="518.179" y="-233.84" fill="none" rx="0" ry="0" transform="translate(276.06 282.71)scale(1.01)"/><path d="M1001.424 348.92q0-20.018-9.383-34.198t-24.19-22.11q-14.817-7.928-32.744-14.18-17.938-6.262-35.875-12.726t-32.744-15.432q-14.807-8.97-24.2-24.816-9.383-15.857-9.383-38.38 0-38.794 28.573-60.903t73.417-22.109 71.538 20.442 26.694 44.632q0 16.686-6.464 24.816-6.464 8.14-15.23 8.14-16.261 0-20.857-6.261l-1.242-2.081q4.17-5.424 4.17-20.856 0-23.776-20.027-37.34-20.018-13.554-46.51-13.554-26.483 0-41.916 14.18-15.443 14.19-15.443 34.623 0 20.442 9.393 33.996 9.383 13.555 24.402 21.069 15.019 7.504 33.158 13.342 18.15 5.848 36.29 12.726 18.15 6.888 33.168 16.685 15.009 9.807 24.402 27.745 9.383 17.928 9.383 43.38 0 44.631-31.704 68.407t-79.467 23.775q-47.753 0-83.002-24.401-35.25-24.402-35.25-61.105 0-17.11 6.677-26.907 6.666-9.807 15.847-9.807 16.27 0 20.857 5.424l1.252 2.09q-3.757 10.424-3.757 25.442 0 28.361 23.149 49.642 23.16 21.27 60.7 21.27 27.109 0 46.714-18.977t19.604-45.683m132.653-20.028q-16.685-5.838-33.168-12.302-16.474-6.474-27.735-18.563-11.262-12.1-11.262-31.078t17.514-30.866q17.523-11.887 51.106-11.887 33.572 0 52.55 11.675 18.988 11.676 18.988 27.119 0 7.504-5.636 12.09-5.635 4.595-11.05 4.595-10.432 0-13.765-5.01 2.494-2.919 2.494-11.473 0-8.545-12.928-15.645-12.928-7.09-28.785-7.09-15.847 0-26.27 5.847-10.433 5.838-10.433 17.726t11.888 20.644 28.785 14.605q16.887 5.838 33.784 12.514 16.898 6.666 28.785 18.978 11.888 12.302 11.888 30.24 0 26.693-23.15 39.833t-60.902 13.14q-37.754 0-61.317-21.896-23.574-21.897-23.574-54.44 0-11.675 4.596-18.35 4.585-6.677 10.423-6.677 10.847 0 12.514 3.757l.838 1.253q-2.505 6.252-2.505 15.432 0 27.947 16.27 46.299 16.262 18.352 45.047 18.352 44.218 0 44.632-31.28 0-23.776-39.622-37.542"/></g><path fill="transparent" stroke="transparent" stroke-width=".999" d="M720.725.225h558.55v558.55h-558.55z"/></g></svg>